<?xml version="1.0" encoding="utf-8"?>
<!-- Generator: Adobe Illustrator 27.9.0, SVG Export Plug-In . SVG Version: 6.00 Build 0)  -->
<svg version="1.1" id="urzis-icon-vibrant" xmlns:svg="http://www.w3.org/2000/svg"
	 xmlns="http://www.w3.org/2000/svg" xmlns:xlink="http://www.w3.org/1999/xlink" x="0px" y="0px" viewBox="0 0 1983.4 653.7"
	 style="enable-background:new 0 0 1983.4 653.7;" xml:space="preserve">
<style type="text/css">
	.st0{fill:#FFFFFF;}
	.st1{fill:#1A1A2E;}
	.st2{fill:#E84118;}
	.st3{fill:#00AAFF;}
</style>
<path id="path1_00000089570011200042516430000002114002643058212005_" class="st1" d="M900.6,198.1l389.3-25.7L808.1,500.3
	l286.7-280.3L900.6,198.1z"/>
<path id="path2_00000145050552060779840120000015232111305285955247_" class="st2" d="M808.1,500.3L1078.2,225l-177.5-26.9
	l194.9,21.4L808.1,500.3z"/>
<path id="path5_00000162331765874591905190000005622793252725371301_" class="st1" d="M993.9,433.8l54.3-48.4l227.4-8.6l-37.2,40.5
	L993.9,433.8z"/>
<path id="path3_00000017518141044832034640000007074331860836227768_" class="st3" d="M808,500.3l481.9-328L996.3,432.8L808,500.3z"
	/>
<path id="path4_00000072278413711205728190000010906911952097467797_" class="st2" d="M808.1,500.3l188.3-67.5l242.1-15.5
	l-242.8,28.3L808.1,500.3z"/>
<path id="path1131_00000031885987498705058220000002588550950375593111_" class="st3" d="M530.1,204c-5.3,0-9.9,3.6-11.2,8.7
	L507.4,259c-8.8,35.4-18.9,76-26.8,107.9c-3.9,15.9-7.3,29.7-9.7,39.6c-1.2,4.9-2.2,8.9-2.8,11.6c-0.3,1.4-0.6,2.5-0.8,3.2
	c-0.1,0.4-0.2,0.7-0.2,1c0,0.1-0.1,0.3-0.1,0.5s-0.2-0.9-0.2,2.2c0,5.5,3.1,8,4.5,9.1s2.2,1.4,2.8,1.7c1.3,0.6,2.2,0.8,3,1
	c1.7,0.4,3.4,0.7,5.4,0.9c3.1,0.3,6.9,0.4,13.2,0.5c6.3,0.1,14.1,0.3,22.1,0.3l28.8,0.2c5.3,0,10-3.5,11.3-8.7l8.1-32.8
	c2.2-8.9,4.5-17.7,6.3-24.5c1.6-5.9,2.8-9.6,3-10.4h5.8c28.7-0.2,38.3,2,36.5,1c-1.6-0.8,0.7,0.6,3.1,2.9c2.4,2.3,5.6,5.7,9.4,10
	c7.7,8.5,17.8,20.6,29.7,35.2l18.5,23c2.2,2.7,5.5,4.3,9.1,4.3l36-0.1c10,0,19.9-0.2,27.8-0.4c8-0.2,13.1-0.3,17-0.8l7.5-0.9
	c6.3-0.8,10.8-6.5,10-12.7c-0.3-2-1-3.9-2.2-5.5l-15.2-19.8c-8.4-11-19.8-25.5-25.7-32.8c-2.3-2.9-2.6-3.4-4.1-5.4
	c17.3-2.7,36.6-8.8,49-16.8c24.6-15.8,40.3-41.4,45.5-72.5c1.5-9.2,1-16-1.5-22.6c-9.8-25.7-34.8-40.3-68.4-43.1
	c-5.9-0.5-20.6-0.7-42.9-0.9c-22.4-0.2-51.2-0.4-81.2-0.4L530.1,204z M702.3,269.6c18.2,0.1,28.2,1.1,32.1,2.3
	c3.9,1.2,2.3,0.2,4.4,4c0.3,0.5,0.8,4.8-1.6,10.2c-2.3,5-6.6,10.3-11.3,13.7c-0.4-0.1-2.9,0.5-9.7,0.7c-10.1,0.3-28.1,0.5-59.8,0.5
	c-35.9,0.1-55.2,0.1-65.6-0.2c1-4.2,2-8.7,3.3-14.1l3.9-15.8l55.5-0.8C674.2,269.7,690.1,269.5,702.3,269.6L702.3,269.6z"/>
<path id="path6_00000018233719692234452170000005854579959799718078_" class="st3" d="M464.8,203.6c-14.2-0.3-47.9,0.2-47.9,0.2
	c-10.4,0.5-19.3,7.8-21.6,18l-7.7,29c-5.3,24.2-13.2,59.8-17.4,79.1c-4.4,19.7-7.3,31.3-10.4,38.7c-3.1,7.4-6.1,11-11.5,15
	c-5.7,4.2-8.6,5.8-17,7s-22.4,1.4-49.3,1.8c-25.9,0.3-39.5-1-52.5-1.8c-13.1-0.8-20.6-2.4-23.8-4.2c-13.5-7.7-9.1-25.1-6.5-37.1
	c2.3-10.7,5.5-25.2,9-40.6c8.2-36.3,15.6-80.5,18.1-97.4c0.6-3.9-2.4-7.4-6.3-7.6c-12.3-0.5-36.4-0.3-39.8-0.1
	c-12,0.7-22.3,8.8-25.7,20.3c-2.4,8.2-5,17.1-6.1,22.4c-5.3,23.6-12.1,56.8-20.1,96.9c-3,15.2-7,31.4-5.1,47.3
	c2,17.2,13,32,28.1,40.4c16,8.9,32.6,9.8,50.4,10.3c22,0.6,50.2,3.9,72.2,3.9c17.9-0.1,35.8,0.1,53.7-0.3l33.3-0.7
	c32.9,0.7,56.4-24.5,68.1-57.9c4.4-15.3,8.2-29.5,11.7-44.4c4.1-16.6,9-36.8,13.6-56.5s10.1-39.7,13.2-54.1c1-4.6,2.7-14.1,3.6-20.4
	C471.5,207.4,468.3,203.7,464.8,203.6z"/>
<path id="path1133_00000174572982406225342010000011607932300520788144_" class="st1" d="M1802,199.9c-30.4-0.1-75.4,0.2-114,0.7
	c-19.3,0.3-37,0.6-50.6,0.9c-6.8,0.2-12.5,0.3-16.8,0.5c-4.4,0.2-6.7,0.2-9.6,0.7c-28.3,4.5-58.1,19.5-73.9,39.4
	c-13.6,17.2-20.9,40.2-16.6,60.2c4.7,22.2,26.9,36.6,53.6,43.5c15.4,4,41.1,5.4,107.3,7.4c14.6,0.4,22.7-0.5,33.9,0.8
	c3.9,0.4,9.2,0.5,11.5,2.3c2.2,1.7,3.3,3.4,3.1,4.9c-0.1,1.3-0.2,2.8-1,3.9c-1.9,2.6-5.5,4.4-8,5.2c-0.1,0-8.4,1.4-12.7,1.8
	c-9.6,0.9-16.9,1.1-28.9,1.5c-24,0.8-57,1.3-97.2,1.3l-60.2,0.1c-4,0-7.7,2.1-9.8,5.5l-12.4,20.3c-3.4,5.6-6.5,10.8-8.8,14.8
	c-1.6,2.8-3.5,5.6-4.4,8.8c-1,3.6-0.1,7.7,2.1,10.7c4.2,5.9,11.5,4.9,17.8,5c6,0.1,14.6,0.1,24.8,0.1c20.6,0,48.1-0.2,76.2-0.5
	s56.7-0.7,79.3-1.1c22.7-0.4,38.2-0.7,44.3-1.2c52.3-4.7,94.1-35.9,102.2-80.6c2.1-11.7,1.6-22.9-3.1-32.6
	c-4.8-9.7-13.2-16.9-23.8-22.6c-11.6-6.2-22.2-10.4-40.8-12.6c-18.6-2.3-46-3.3-95.7-4.8c-33.7-1-39.9-2.2-40.8-2.7
	c-5.6-2.7-4.5-2.3-4.3-4.3c0.4-4.6,3.1-5.5,11.3-8.2c2.1-0.7,0.9-0.1,4.6-0.3c3.7-0.2,9.3-0.5,16.7-0.7c14.8-0.4,37.3-0.8,69.2-1.1
	l88.3-0.9c4,0,7.7-2.2,9.8-5.7l12-20.3c5.1-8.6,8.1-13.7,10-17.9c1-2.1,1.9-4,2.1-7.7c0.1-3.8-3.4-10.2-6.6-12.1
	c-3-1.7-3.3-1.3-3.9-1.4s-1-0.2-1.4-0.2c-0.8-0.1-1.6-0.1-2.6-0.2c-1.9-0.1-4.4-0.2-7.5-0.2C1820.6,200,1812.1,199.9,1802,199.9
	L1802,199.9z"/>
<path id="path7_00000081638479841745523900000000437206099725598387_" class="st1" d="M1394.4,440.6h-57.6c-4.5,0-7.8-4.2-6.8-8.6
	l50.8-225.1c0.7-3.2,3.6-5.5,6.8-5.5h57.6c4.5,0,7.8,4.2,6.8,8.6l-50.8,225.1C1400.5,438.4,1397.7,440.6,1394.4,440.6L1394.4,440.6z
	"/>
</svg>
