<?xml version="1.0" encoding="UTF-8" standalone="no"?>
<!-- Created with Inkscape (http://www.inkscape.org/) -->

<svg
   version="1.1"
   id="svg1"
   width="1302"
   height="297"
   viewBox="0 0 1302 297"
   xml:space="preserve"
   xmlns="http://www.w3.org/2000/svg"
   xmlns:svg="http://www.w3.org/2000/svg"><defs
     id="defs1">
	
	
	
	
	
</defs><g
     id="g1"><path
       style="fill:#ffffff;stroke-width:0.526275"
       d="m 505.38117,218.40092 c -0.72142,-0.72143 -1.31169,-1.52899 -1.31169,-1.79459 0,-1.04576 6.88456,-34.75615 10.06795,-49.29795 0.57028,-2.60505 1.35652,-6.39424 1.74721,-8.42041 0.9501,-4.9274 7.09597,-35.28098 9.80336,-48.4173 1.19312,-5.78903 2.49229,-11.303708 2.88704,-12.254844 1.44736,-3.487191 -1.12126,-3.344552 56.19165,-3.120556 45.13265,0.176382 52.19303,0.310257 55.87119,1.059414 16.02468,3.263851 26.07089,11.473746 28.9422,23.651966 2.2263,9.4425 -0.35195,25.16928 -5.80302,35.3974 -2.45556,4.60748 -6.95359,10.60465 -9.86647,13.15487 -5.5335,4.84453 -13.8267,9.19453 -20.91909,10.97261 -9.53819,2.39123 -12.49076,2.56846 -47.21781,2.83431 l -33.28691,0.25482 0.006,1.12739 c 0.004,0.62008 -0.35593,2.78518 -0.79919,4.81133 -0.44328,2.02617 -1.98401,9.12468 -3.42387,15.77446 -2.40063,11.08705 -2.75005,12.22274 -4.20992,13.68316 l -1.59199,1.59262 -17.88784,0.1515 -17.88784,0.1515 z m 112.54489,-69.17446 c 4.2624,-1.71825 7.3811,-4.84079 8.44851,-8.45892 1.46587,-4.9688 0.84971,-8.18819 -2.07871,-10.86108 -3.32678,-3.03649 -3.36404,-3.0402 -32.73055,-3.25137 l -26.969,-0.19395 -0.52477,1.21458 c -0.43368,1.00374 -3.71241,16.36608 -4.61722,21.63378 l -0.25306,1.4733 27.82457,-0.15824 27.82456,-0.15824 z m 31.39536,70.08107 c -0.97508,-0.34847 -2.1051,-1.72704 -2.1051,-2.56808 0,-0.73634 6.98229,-11.21103 14.15454,-21.23435 2.77998,-3.88503 6.44875,-9.09516 8.15284,-11.57804 1.70409,-2.48289 7.72607,-11.02701 13.38217,-18.98691 9.77902,-13.76216 27.14289,-38.25192 32.57116,-45.93793 1.38781,-1.96502 4.29947,-6.02358 6.47035,-9.019 2.1709,-2.99541 5.00098,-6.91226 6.28909,-8.70409 4.26592,-5.934078 5.92419,-6.290461 29.38355,-6.314823 l 18.04242,-0.01879 2.60602,1.320571 c 2.71834,1.377477 5.08265,4.612672 6.3425,8.678662 0.69372,2.23889 4.34165,11.80687 6.01948,15.78825 0.67091,1.59198 2.79502,7.15735 4.72027,12.36746 1.92525,5.21012 4.42747,11.72278 5.56051,14.47257 1.13302,2.74978 3.39219,8.55197 5.02038,12.89375 1.62818,4.34176 3.42774,9.07824 3.999,10.5255 0.57128,1.44725 1.98346,5.23643 3.13817,8.42039 1.15472,3.18397 3.13221,8.39409 4.39443,11.57806 1.26221,3.18397 3.15243,8.03885 4.20048,10.78864 1.04806,2.74978 2.72303,6.93528 3.72215,9.30109 2.18634,5.17699 2.23525,6.08145 0.40673,7.51977 -1.38377,1.08848 -1.76581,1.10622 -20.6563,0.95917 -17.23577,-0.13416 -19.44361,-0.24802 -21.13378,-1.08986 -2.40649,-1.19862 -3.61602,-3.37572 -6.86687,-12.36 -1.43032,-3.95297 -2.81785,-7.32148 -3.08339,-7.48559 -0.26554,-0.16412 -16.16946,-0.27227 -35.34205,-0.24034 -28.37015,0.0473 -34.90237,0.18738 -35.09087,0.75287 -0.53711,1.61134 -10.36025,15.69631 -12.18186,17.46703 -1.09224,1.06172 -2.90395,2.18532 -4.02602,2.49687 -2.07908,0.57728 -36.53011,0.76461 -38.09,0.20712 z m 114.8698,-51.0007 c 0.17449,-0.17451 0.0637,-0.94418 -0.24619,-1.7104 -2.01438,-4.98076 -8.087,-22.89245 -12.31296,-36.31814 -0.36893,-1.17207 -1.41115,0.0354 -5.30626,6.14761 -3.47153,5.44754 -9.28308,14.04115 -15.72418,23.25149 -1.7206,2.46034 -3.78297,5.47984 -4.58307,6.71001 l -1.45474,2.23667 h 19.65508 c 10.81029,0 19.79783,-0.14276 19.97232,-0.31724 z m 77.48382,51.00652 c -1.71136,-0.44216 -3.38124,-2.31524 -3.73229,-4.18649 -0.2614,-1.39313 0.0769,-2.51998 1.67328,-5.57329 1.10056,-2.10491 3.90858,-7.60611 6.24021,-12.22489 3.36939,-6.67483 4.58318,-8.59729 5.91601,-9.37025 1.5859,-0.91972 3.89849,-0.97995 42.62828,-1.11026 35.97688,-0.12105 41.34148,-0.24243 44.16249,-0.99932 4.61546,-1.23838 5.89268,-1.93006 7.06423,-3.82568 1.65135,-2.67188 1.36902,-4.55863 -1.00258,-6.70127 -2.69264,-2.43264 -5.03965,-2.78708 -25.06094,-3.78466 -20.92854,-1.04279 -24.21622,-1.2707 -31.10329,-2.15632 -20.61305,-2.65066 -31.10683,-9.54308 -34.14396,-22.42625 -2.1981,-9.32388 0.64485,-22.04765 6.99059,-31.28643 2.74699,-3.99934 9.19929,-9.53939 14.19909,-12.19176 7.07016,-3.750588 18.98314,-6.923687 30.0354,-8.000113 3.15553,-0.307332 23.27416,-0.53081 47.7857,-0.53081 45.73099,0 44.21204,-0.09029 46.19829,2.74546 1.43235,2.04485 0.99285,4.546073 -1.73633,9.885133 -8.03983,15.72755 -9.45462,18.14932 -10.95339,18.74953 -1.02806,0.41168 -12.74534,0.69688 -37.9243,0.92309 -34.64254,0.31124 -41.38536,0.60657 -46.10019,2.01917 -3.87314,1.16041 -4.68393,4.93801 -1.51642,7.06529 2.34323,1.57376 5.65096,2.2076 14.76589,2.82952 4.24222,0.28945 14.81783,1.00855 23.50139,1.59799 27.00129,1.83286 34.99434,3.68597 43.77221,10.14814 3.55463,2.61688 5.38036,5.27271 7.43156,10.81069 2.35798,6.36597 1.62196,18.23327 -1.66951,26.92265 -6.09103,16.07954 -20.32038,25.57507 -44.65589,29.79964 -4.19759,0.7287 -11.63544,0.86757 -53.29569,0.99515 -26.62956,0.0816 -48.89093,0.0258 -49.46984,-0.1237 z m 159.40246,-0.15637 c -1.59255,-0.64347 -3.36192,-3.08559 -3.36192,-4.6402 0,-0.73155 2.61432,-6.4426 5.80972,-12.6912 5.9242,-11.58499 8.185,-14.73813 10.6287,-14.82354 0.6554,-0.023 19.3089,-0.0833 41.4518,-0.13439 42.428,-0.0977 43.3041,-0.14382 48.0118,-2.52533 3.6678,-1.85538 4.7594,-6.49619 2.116,-8.99572 -2.5554,-2.41635 -4.8999,-2.75281 -26.7085,-3.83293 -17.3875,-0.86114 -26.6779,-1.5557 -32.629,-2.43935 -17.0331,-2.52915 -27.0742,-8.7925 -30.8983,-19.27349 -0.8913,-2.44266 -1.0989,-4.21972 -1.0907,-9.33248 0.024,-15.2899 6.4104,-27.06192 19.171,-35.33935 6.3147,-4.09623 15.7829,-7.315141 25.9749,-8.830743 10.2457,-1.523623 19.6446,-1.761955 58.3558,-1.479729 l 38.8835,0.2835 1.7548,1.540784 c 3.0413,2.67032 2.9449,4.246028 -0.6966,11.367038 -6.8113,13.31961 -9.292,17.53505 -10.7682,18.29845 -1.1973,0.61909 -6.5926,0.7632 -31.0691,0.82982 -32.3726,0.0881 -47.3493,0.52369 -50.9024,1.48043 -2.758,0.74266 -5.2948,3.10028 -5.2948,4.92095 0,1.79883 2.5453,3.81576 5.6574,4.4832 2.689,0.57669 8.3889,1.02584 34.8659,2.74742 9.1177,0.59285 19.1827,1.52639 22.3666,2.07452 17.2036,2.96168 26.6607,9.55156 28.8902,20.13129 1.2123,5.75224 1.2783,7.59481 0.5116,14.27651 -2.1898,19.08216 -12.4562,31.24198 -31.525,37.33886 -7.2609,2.32156 -15.0496,3.87016 -22.8748,4.54811 -7.3835,0.63968 -95.0513,0.65562 -96.6304,0.0175 z"
       id="path1" /><path
       id="path5_00000158709483829345475780000015676785300276384652_"
       class="st2"
       d="m 256.80966,236.74096 39.92375,-35.57333 167.35636,-6.35238 -27.41148,29.83694 z"
       style="stroke-width:0.384993;fill:#ffffff" /><path
       id="path1_00000066477910488403072380000011071669335276352932_"
       class="st2"
       d="M 188.12695,63.263215 474.56158,44.360069 120.06022,285.67354 330.99777,79.471411 Z"
       style="stroke-width:0.384993;fill:#ffffff" /><path
       id="path2_00000021814657053864158280000011853683256200670116_"
       class="st3"
       d="M 120.06022,285.67354 318.7935,83.090343 188.16545,63.263215 331.53676,78.97092 Z"
       style="stroke-width:0.384993" /><path
       id="path3_00000095301884412989575390000015280046646413853614_"
       class="st4"
       d="M 120.02173,285.67354 474.56158,44.360069 258.54213,235.97098 Z"
       style="stroke-width:0.384993" /><path
       id="path4_00000028307026473224501610000005988784448395086264_"
       class="st3"
       d="M 120.06022,285.67354 258.58063,235.97098 436.67829,224.61369 258.04164,245.4033 Z"
       style="stroke-width:0.384993" /></g><style
     type="text/css"
     id="style1">
	.st0{fill:#FFFFFF;}
	.st1{fill:#1A1A2E;}
	.st2{fill:#E84118;}
	.st3{fill:#00AAFF;}
</style><style
     type="text/css"
     id="style1-8">
	.st0{fill:#000102;}
	.st1{fill:#FFFFFF;}
	.st2{fill:#1A1A2E;}
	.st3{fill:#E84118;}
	.st4{fill:#00AAFF;}
</style></svg>
